<svg xmlns="http://www.w3.org/2000/svg" width="24" height="16" viewBox="0 0 24 16"><rect width="24" height="16" fill="#EE1C25"></rect><g fill="#FF0"><polygon points="4.8,3.6 5.3,5.1 6.9,5.1 5.6,6 6.1,7.5 4.8,6.6 3.5,7.5 4,6 2.7,5.1 4.3,5.1"></polygon><polygon points="8.6,1.9 8.8,2.5 9.4,2.5 8.9,2.8 9.1,3.4 8.6,3 8.1,3.4 8.3,2.8 7.8,2.5 8.4,2.5"></polygon><polygon points="10.1,3.8 10.2,4.4 10.9,4.4 10.3,4.8 10.5,5.4 10.1,5 9.6,5.4 9.8,4.8 9.3,4.4 9.9,4.4"></polygon><polygon points="10.1,6.2 10.2,6.8 10.9,6.8 10.3,7.2 10.5,7.8 10.1,7.4 9.6,7.8 9.8,7.2 9.3,6.8 9.9,6.8"></polygon><polygon points="8.6,8 8.8,8.6 9.4,8.6 8.9,8.9 9.1,9.5 8.6,9.1 8.1,9.5 8.3,8.9 7.8,8.6 8.4,8.6"></polygon></g></svg>